<svg xmlns="http://www.w3.org/2000/svg" viewBox="0 0 16 16"><style>.st1{display:inline}.st1,.st2{fill:#fff}</style><path d="M11.526 12.966h-.153v-.517q0-.063-.007-.117-.007-.056-.027-.087-.02-.034-.058-.05-.039-.017-.1-.017-.062 0-.13.03-.069.032-.132.08v.678h-.153v-.909h.153v.101q.072-.06.149-.093.076-.033.157-.033.147 0 .224.089.078.088.078.255zm-.996-.454q0 .222-.114.35-.114.13-.306.13t-.306-.13q-.113-.128-.113-.35 0-.222.113-.35.114-.13.306-.13t.306.13q.114.128.114.35zm-.158 0q0-.176-.07-.262-.069-.086-.192-.086-.124 0-.193.086t-.069.262q0 .171.07.26.069.088.192.088t.192-.087q.07-.088.07-.26zm-.91-.607h-.173v-.159h.173zm-.01 1.061H9.3v-.909h.153zm-.34-.008q-.042.012-.094.019-.05.007-.09.007-.14 0-.212-.075-.072-.075-.072-.24v-.483h-.103v-.129h.103v-.261h.153v.261h.316v.129h-.316v.414q0 .072.003.112.004.04.023.075.018.033.049.048.032.015.096.015.037 0 .078-.01.04-.012.059-.02h.008zm-.764-1.053h-.173v-.159h.173zm-.01 1.061h-.153v-.909h.153zm-.456 0H7.73v-.095q-.066.057-.137.089-.072.032-.156.032-.162 0-.258-.126-.096-.125-.096-.347 0-.116.033-.206.033-.09.09-.154.055-.062.128-.094.074-.033.153-.033.072 0 .127.015.055.015.116.047V11.7h.153zm-.153-.224v-.521q-.062-.028-.11-.038-.05-.011-.107-.011-.129 0-.2.09-.072.089-.072.253 0 .162.056.247.055.084.177.084.065 0 .132-.029.066-.029.124-.075zm-.816-.214h-.67q0 .083.025.146.026.062.07.102.042.039.1.058.058.02.128.02.093 0 .187-.037t.134-.073h.008v.167q-.077.032-.158.054-.08.022-.169.022-.226 0-.353-.122-.127-.123-.127-.348 0-.223.121-.354.122-.131.32-.131.185 0 .284.107.1.108.1.306zm-.149-.118q0-.12-.06-.186t-.182-.066q-.123 0-.197.073-.072.072-.082.18zm-1.499.556h-.153v-.095q-.066.057-.137.089-.072.032-.156.032-.163 0-.259-.126-.095-.125-.095-.347 0-.116.033-.206.033-.09.09-.154.055-.062.128-.094.074-.033.153-.033.071 0 .127.015.055.015.116.047V11.7h.153zm-.153-.224v-.521q-.062-.028-.11-.038-.05-.011-.107-.011-.129 0-.2.09-.072.089-.072.253 0 .162.055.247.056.084.178.084.065 0 .132-.029.066-.029.124-.075zm-.728-.518h-.008q-.035-.008-.067-.011-.032-.004-.076-.004-.07 0-.137.031-.065.031-.126.08v.646h-.153v-.909h.153v.135q.09-.074.16-.104t.142-.03q.04 0 .058.002.018.001.054.007zm-.804.288q0 .222-.114.35-.114.13-.305.13-.193 0-.307-.13-.113-.128-.113-.35 0-.222.113-.35.114-.13.307-.13.19 0 .305.13.114.128.114.35zm-.158 0q0-.176-.07-.262-.069-.086-.191-.086-.125 0-.194.086-.068.086-.068.262 0 .171.069.26.069.088.193.088.122 0 .19-.087.07-.088.07-.26zm-.748-.614H2.06v.342h.527v.143H2.06v.583H1.9v-1.211h.774zM6.992 1H1.8v5.87l3.386 3.16V4.386h1.806c1.129 0 1.806.677 1.806 1.355v4.289c0 .903-.677 1.58-1.806 1.58H1.8v3.386h5.192c2.709 0 5.418-1.355 5.418-4.515V5.966C12.41 2.58 9.7 1 6.992 1z"/></svg>